<svg xmlns="http://www.w3.org/2000/svg" viewBox="0 0 448 52" fill="none">
  <style>
    @keyframes scroll-left-tools {
      from { transform: translateX(0px); }
      to { transform: translateX(-448px); }
    }
    .marquee {
      animation: scroll-left-tools 28s linear infinite;
    }
  </style>

  <defs>

<linearGradient id="matlab-light-paint0_linear_601_132" x1="132.921" y1="123.467" x2="120.839" y2="84.452" gradientUnits="userSpaceOnUse">
<stop stop-color="#551122"/>
<stop offset="0.23" stop-color="#552233"/>
<stop offset="0.36" stop-color="#553344"/>
<stop offset="0.51" stop-color="#664455"/>
<stop offset="0.66" stop-color="#556688"/>
<stop offset="0.84" stop-color="#2299DD"/>
</linearGradient>
<linearGradient id="matlab-light-paint1_linear_601_132" x1="220.043" y1="147.86" x2="98.543" y2="118.025" gradientUnits="userSpaceOnUse">
<stop offset="0.081" stop-color="#CC3333"/>
<stop offset="0.189" stop-color="#DE5239"/>
<stop offset="0.313" stop-color="#F06E3E"/>
<stop offset="0.421" stop-color="#FA8042"/>
<stop offset="0.5" stop-color="#FE8643"/>
<stop offset="0.58" stop-color="#FA7F42"/>
<stop offset="0.696" stop-color="#EF6C3E"/>
<stop offset="0.833" stop-color="#DC4C37"/>
<stop offset="0.916" stop-color="#CF3633"/>
</linearGradient>


<linearGradient id="arch-light-paint0_linear_33_628" x1="127.904" y1="61.7314" x2="104.123" y2="133.77" gradientUnits="userSpaceOnUse">
<stop stop-color="white" stop-opacity="0"/>
<stop offset="1" stop-color="white" stop-opacity="0.27451"/>
</linearGradient>
<clipPath id="arch-light-clip0_33_628">
<rect width="256" height="256" fill="white"/>
</clipPath>
<clipPath id="arch-light-clip1_33_628">
<rect width="175" height="175" fill="white" transform="translate(40 41)"/>
</clipPath>

  <symbol id="ico-vscode-light" viewBox="0 0 256 256">
    <path fill="#2489CA" d="M33.7158 100.208C33.7158 100.208 28.9814 96.795 34.6627 92.2381L47.8994 80.402C47.8994 80.402 51.6869 76.4172 55.6915 79.8891L177.84 172.368V216.714C177.84 216.714 177.781 223.678 168.844 222.908L33.7158 100.208Z"/><path fill="#1070B3" d="M65.1997 128.792L33.7157 157.415C33.7157 157.415 30.4805 159.822 33.7157 164.123L48.3333 177.418C48.3333 177.418 51.8052 181.147 56.9341 176.905L90.3119 151.596L65.1997 128.792Z"/><path fill="#0877B9" d="M120.474 129.029L178.215 84.9391L177.84 40.83C177.84 40.83 175.374 31.2033 167.148 36.2139L90.312 106.145L120.474 129.029Z"/><path fill="#3C99D4" d="M168.844 222.968C172.198 226.4 176.262 225.276 176.262 225.276L221.259 203.103C227.019 199.177 226.21 194.305 226.21 194.305V61.8982C226.21 56.0788 220.252 54.0667 220.252 54.0667L181.253 35.267C172.731 30 167.148 36.2139 167.148 36.2139C167.148 36.2139 174.328 31.0455 177.84 40.83V215.905C177.84 217.109 177.583 218.292 177.071 219.358C176.045 221.429 173.816 223.362 168.47 222.553L168.844 222.968Z"/>
  </symbol>
  <symbol id="ico-uv-light" viewBox="0 0 256 256">
    <g transform="translate(28.0,28.0) scale(4.878049)">
    <defs
     id="uv-light-defs1" />
  <path
     d="M -5.28619e-6,0.168629 0.0843098,20.1685 0.151762,36.1683 c 0.009313,2.2091 1.807708,3.9924 4.016828,3.9831 l 15.99981,-0.0674 10,-0.0422 1.0168,-0.0043 C 33.3877,40.0282 35.1683,38.2026 35.1683,36 v 0 h 1.832 v 3.9992 l 3.168,4e-4 L 39.9996,-9.94653e-7 21.5998,0.0775689 21.6774,16.0185 v 9.9813 h -1.6 -1.6776 L 18.4774,16.032 18.3998,0.0910593 Z"
     fill="#de5fe9"
     id="uv-light-path1" />
  </g>
  </symbol>
  <symbol id="ico-claude-light" viewBox="0 0 512 510">
    <path fill="#D77655" d="M115.612 0h280.775C459.974 0 512 52.026 512 115.612v278.415c0 63.587-52.026 115.612-115.613 115.612H115.612C52.026 509.639 0 457.614 0 394.027V115.612C0 52.026 52.026 0 115.612 0z"/><path fill="#FCF2EE" fill-rule="nonzero" d="M142.27 316.619l73.655-41.326 1.238-3.589-1.238-1.996-3.589-.001-12.31-.759-42.084-1.138-36.498-1.516-35.361-1.896-8.897-1.895-8.34-10.995.859-5.484 7.482-5.03 10.717.935 23.683 1.617 35.537 2.452 25.782 1.517 38.193 3.968h6.064l.86-2.451-2.073-1.517-1.618-1.517-36.776-24.922-39.81-26.338-20.852-15.166-11.273-7.683-5.687-7.204-2.451-15.721 10.237-11.273 13.75.935 3.513.936 13.928 10.716 29.749 23.027 38.848 28.612 5.687 4.727 2.275-1.617.278-1.138-2.553-4.271-21.13-38.193-22.546-38.848-10.035-16.101-2.654-9.655c-.935-3.968-1.617-7.304-1.617-11.374l11.652-15.823 6.445-2.073 15.545 2.073 6.547 5.687 9.655 22.092 15.646 34.78 24.265 47.291 7.103 14.028 3.791 12.992 1.416 3.968 2.449-.001v-2.275l1.997-26.641 3.69-32.707 3.589-42.084 1.239-11.854 5.863-14.206 11.652-7.683 9.099 4.348 7.482 10.716-1.036 6.926-4.449 28.915-8.72 45.294-5.687 30.331h3.313l3.792-3.791 15.342-20.372 25.782-32.227 11.374-12.789 13.27-14.129 8.517-6.724 16.1-.001 11.854 17.617-5.307 18.199-16.581 21.029-13.75 17.819-19.716 26.54-12.309 21.231 1.138 1.694 2.932-.278 44.536-9.479 24.062-4.347 28.714-4.928 12.992 6.066 1.416 6.167-5.106 12.613-30.71 7.583-36.018 7.204-53.636 12.689-.657.48.758.935 24.164 2.275 10.337.556h25.301l47.114 3.514 12.309 8.139 7.381 9.959-1.238 7.583-18.957 9.655-25.579-6.066-59.702-14.205-20.474-5.106-2.83-.001v1.694l17.061 16.682 31.266 28.233 39.152 36.397 1.997 8.999-5.03 7.102-5.307-.758-34.401-25.883-13.27-11.651-30.053-25.302-1.996-.001v2.654l6.926 10.136 36.574 54.975 1.895 16.859-2.653 5.485-9.479 3.311-10.414-1.895-21.408-30.054-22.092-33.844-17.819-30.331-2.173 1.238-10.515 113.261-4.929 5.788-11.374 4.348-9.478-7.204-5.03-11.652 5.03-23.027 6.066-30.052 4.928-23.886 4.449-29.674 2.654-9.858-.177-.657-2.173.278-22.37 30.71-34.021 45.977-26.919 28.815-6.445 2.553-11.173-5.789 1.037-10.337 6.243-9.2 37.257-47.392 22.47-29.371 14.508-16.961-.101-2.451h-.859l-98.954 64.251-17.618 2.275-7.583-7.103.936-11.652 3.589-3.791 29.749-20.474-.101.102.024.101z"/>
  </symbol>
  <symbol id="ico-latex-light" viewBox="0 0 256 256">
    <path d="M67.8948 193.68H65.7476C64.8888 202.533 63.6863 213.294 48.57 213.294H41.6131C37.5764 213.294 37.4046 212.687 37.4046 209.823V163.738C37.4046 160.787 37.4046 159.572 45.4781 159.572H48.3124V156.968C45.2204 157.229 37.4905 157.229 33.9691 157.229C30.6195 157.229 23.9202 157.229 21 156.968V159.572H22.9754C29.5888 159.572 29.7606 160.526 29.7606 163.651V209.215C29.7606 212.34 29.5888 213.294 22.9754 213.294H21V215.985H65.5759L67.8948 193.68V193.68Z" fill="black"/>
<path d="M66.4348 156.881C66.0913 155.84 65.9195 155.493 64.8029 155.493C63.6864 155.493 63.4287 155.84 63.0852 156.881L49.2572 192.291C48.656 193.767 47.6253 196.457 42.3003 196.457V198.627H55.6129V196.457C52.9504 196.457 51.3185 195.242 51.3185 193.506C51.3185 193.072 51.4044 192.899 51.5762 192.291L54.4964 184.827H71.5022L74.9377 193.68C75.1095 194.027 75.2813 194.461 75.2813 194.721C75.2813 196.457 72.0175 196.457 70.3857 196.457V198.627H87.3056V196.457H86.1032C82.0664 196.457 81.637 195.85 81.0358 194.114L66.4348 156.881V156.881ZM62.9993 163.043L70.6433 182.658H55.3553L62.9993 163.043V163.043Z" fill="black"/>
<path d="M135.231 157.489H82.9251L81.3792 176.93H83.4405C84.6429 162.956 85.9312 160.092 98.9003 160.092C100.446 160.092 102.679 160.092 103.538 160.266C105.342 160.613 105.342 161.568 105.342 163.564V209.128C105.342 212.079 105.342 213.294 96.3237 213.294H92.8881V215.985C96.4095 215.724 105.084 215.724 109.035 215.724C112.986 215.724 121.832 215.724 125.354 215.985V213.294H121.918C112.9 213.294 112.9 212.079 112.9 209.128V163.564C112.9 161.828 112.9 160.613 114.446 160.266C115.391 160.092 117.71 160.092 119.342 160.092C132.225 160.092 133.513 162.956 134.716 176.93H136.863C136.863 176.93 135.231 157.489 135.231 157.489Z" fill="black"/>
<path d="M181.267 213.207H179.12C176.972 226.486 174.997 232.822 160.31 232.822H148.973C144.936 232.822 144.764 232.214 144.764 229.35V206.264H152.408C160.74 206.264 161.684 209.042 161.684 216.419H163.832V193.506H161.684C161.684 200.883 160.74 203.574 152.408 203.574H144.764V182.831C144.764 179.967 144.936 179.36 148.973 179.36H159.967C173.107 179.36 175.341 184.133 176.715 196.197H178.862C178.862 196.197 176.457 176.756 176.457 176.756H128.36V179.36H130.335C136.949 179.36 137.12 180.314 137.12 183.439V228.743C137.12 231.867 136.949 232.822 130.335 232.822H128.36V235.512H177.66L181.267 213.207V213.207Z" fill="black"/>
<path d="M207.119 182.571L218.886 165.213C220.69 162.436 223.61 159.659 231.254 159.572V156.968H210.812V159.572C214.248 159.659 216.138 161.568 216.138 163.564C216.138 164.432 215.966 164.606 215.365 165.56L205.573 180.141C205.573 180.141 194.58 163.477 194.58 163.477C194.408 163.217 193.978 162.523 193.978 162.175C193.978 161.134 195.868 159.659 199.475 159.572V156.968C196.555 157.229 190.285 157.229 187.022 157.229C184.359 157.229 179.034 157.142 175.856 156.968V159.572H177.488C182.212 159.572 183.844 160.179 185.476 162.609L201.193 186.65L187.193 207.566C185.991 209.302 183.414 213.294 174.825 213.294V215.985H195.267V213.294C191.316 213.208 189.856 210.864 189.856 209.302C189.856 208.521 190.113 208.174 190.715 207.219L202.825 189.08L216.395 209.736C216.567 210.083 216.825 210.43 216.825 210.691C216.825 211.732 214.935 213.208 211.242 213.294V215.985C214.248 215.724 220.518 215.724 223.696 215.724C227.303 215.724 231.254 215.811 234.861 215.985V213.294H233.229C228.763 213.294 226.959 212.86 225.156 210.17L207.119 182.571V182.571Z" fill="black"/>
<path d="M66.7719 20.0002C68.2818 22.7202 69.8515 25.0409 71.4904 27.0521C70.7411 26.9428 69.9691 26.8785 69.1673 26.8869C67.5836 26.9036 65.8906 27.1665 64.0565 27.744C67.257 30.4241 69.9618 32.38 72.3477 33.8874C68.6619 32.7101 64.6927 32.5424 60.0302 34.7547C63.4359 36.8858 66.2945 38.426 68.7965 39.5765C64.896 38.8576 60.8514 39.1851 56.4371 42.0958C59.3516 43.3945 61.872 44.3696 64.1086 45.1107C60.4373 45.239 56.8035 46.3729 53.247 49.7466C56.332 50.512 58.9752 51.0194 61.3003 51.3573C58.4546 51.9323 55.6631 53.2973 52.9577 56.0242C55.0538 56.4771 56.9406 56.8189 58.6674 57.0774C56.5416 58.1049 54.5288 59.6973 52.6892 62.1366C55.1046 62.3242 57.2416 62.4075 59.163 62.4154C56.8382 63.4911 54.662 65.1907 52.7202 67.9187C56.1701 68.0911 59.0519 68.0743 61.5378 67.9289C58.8059 69.0458 56.288 70.933 54.1347 74.1963C58.4223 74.2589 61.818 74.053 64.6659 73.7007C61.1311 74.6604 57.8591 76.5901 55.167 80.6701C58.6305 80.7206 61.5214 80.5946 64.0052 80.3603C60.9687 82.015 58.3608 84.5249 56.6435 88.8064C59.7696 88.2144 62.3895 87.5806 64.6455 86.917C62.2956 88.6271 60.3204 91.029 58.9976 94.6401C61.0948 94.1765 62.956 93.6911 64.6351 93.2049C63.1278 95.0273 61.9659 97.3083 61.3105 100.298C63.5878 99.4595 65.5576 98.6467 67.3093 97.8511C65.6451 99.7986 64.374 102.264 63.7472 105.554C66.9534 104.272 69.5613 103.047 71.7594 101.878C69.7444 104.032 68.2452 106.803 67.6501 110.665C71.5537 108.941 74.5486 107.345 76.9838 105.843C74.1871 108.187 72.0366 111.303 71.2947 116.116C76.3954 113.865 79.9551 111.822 82.7246 109.932C81.5352 112.337 80.9048 115.154 81.2068 118.666C86.1365 114.884 89.2593 111.823 91.5831 109.126C91.4263 110.868 91.55 112.762 92.0684 114.857C95.6074 108.776 99.1244 107.001 102.764 104.972C96.9668 107.891 97.8262 110.088 97.8262 112.637C102.249 107.98 108.416 103.041 110.303 99.9474C107.78 103.735 106.754 107.322 106.09 110.489C93.1853 117.314 85.328 119.097 76.5191 121.825C79.9359 123.079 83.5976 124.306 82.0843 126.048L78.0472 130.075C80.6276 129.273 83.2587 128.128 85.5432 129.693C85.319 131.81 82.6437 132.878 80.3599 134.112C84.3805 132.663 85.25 132.998 86.3071 133.338C86.8353 135.874 85.0025 137.238 83.8085 138.913C93.9358 131.213 107.15 125.13 116.456 122.589C129.546 118.181 146.424 113.599 151.014 102.425L155.619 83.9945C161 78.1704 165.95 72.1307 168.298 64.7903C183.283 61.8913 195.399 62.9379 208.039 63.2622C206.887 63.0702 169.445 56.7264 169.445 56.7264C158.502 41.7548 142.191 51.9313 136.817 66.7209C135.461 70.4538 127.723 70.455 125.481 66.7107C116.614 47.6211 89.6869 27.4384 66.7726 20.0001V20L66.7719 20.0002Z" fill="#008080"/>
<path d="M155.177 59.0692L155.079 59.2267C154.691 59.9501 154.034 60.4439 153.11 60.7426C152.187 61.0412 151.004 61.1369 149.626 61.0772L148.76 61.0378L149.39 61.6482C149.709 61.9558 149.799 62.2013 149.803 62.4159C149.808 62.6305 149.715 62.8623 149.508 63.1246C149.093 63.6494 148.269 64.2191 147.5 64.798L147.244 64.9751L147.421 65.2311C148.062 66.2151 148.356 66.9726 148.425 67.554C148.494 68.1355 148.359 68.5526 148.09 68.9123C147.553 69.6321 146.375 70.1198 145.314 70.7235L145.118 70.8219L145.157 71.0582C145.248 71.6116 145.099 72.0639 144.704 72.5149C144.309 72.9658 143.645 73.3959 142.755 73.7749L142.519 73.8733L142.558 74.1293C142.736 75.3144 143.092 76.3457 143.838 77.0034C144.52 77.6052 145.553 77.7638 146.87 77.4955C147.099 78.7589 147.428 79.9078 148.189 80.6651C148.959 81.4326 150.18 81.6596 151.811 81.236C152.178 82.1208 152.715 82.7513 153.327 83.1652C153.999 83.6197 154.878 83.803 155.6 84.0275L156.028 83.567C155.311 83.3443 154.252 83 153.681 82.614C153.11 82.2281 152.646 81.6986 152.323 80.7833L152.224 80.4683L151.909 80.5667C150.232 81.0822 149.302 80.8501 148.661 80.2123C148.021 79.5746 147.661 78.4217 147.441 77.0822L147.382 76.7278L147.027 76.8262C145.645 77.187 144.828 77.0025 144.271 76.5112C143.751 76.0524 143.443 75.2389 143.267 74.2276C144.068 73.8573 144.755 73.4522 145.196 72.9481C145.628 72.4555 145.814 71.8475 145.787 71.2157C146.764 70.6781 147.943 70.2162 148.622 69.3061C148.977 68.8303 149.161 68.2049 149.075 67.4753C148.996 66.8115 148.671 66.0446 148.11 65.1326C148.799 64.6254 149.546 64.117 150.02 63.5183C150.283 63.1855 150.481 62.8171 150.472 62.3963C150.468 62.1642 150.245 61.9527 150.118 61.7269C151.316 61.7426 152.407 61.6637 153.307 61.3725C154.256 61.0658 155.001 60.5068 155.492 59.7386C156.91 59.7457 158.378 60.0575 159.863 60.2504C161.388 60.4487 162.94 60.5019 164.41 59.8567L164.135 59.2465C162.834 59.8173 161.445 59.7936 159.961 59.6008C158.477 59.408 156.931 59.058 155.374 59.0693H155.177L155.177 59.0692Z" fill="white"/>
<path d="M160.686 58.8242C160.686 60.3691 159.434 61.6215 157.889 61.6215C156.344 61.6215 155.092 60.3691 155.092 58.8242C155.092 57.2794 156.344 56.0269 157.889 56.0269C159.434 56.0269 160.686 57.2793 160.686 58.8242Z" fill="white" stroke="white" stroke-width="0.660673"/>
<path d="M169.041 56.2C166.529 59.467 165.898 58.6232 164.369 59.1709L164.113 59.2693L164.153 59.5449C164.741 62.8263 166.686 63.8689 168.204 65.0616L168.288 64.7962L168.692 64.7193C167.171 63.5236 165.506 62.5109 164.901 59.7221C166.014 59.4587 167.077 59.7955 169.448 56.7101L169.041 56.2001V56.2Z" fill="white"/>
<path d="M72.3442 33.8794C77.0896 36.8218 84.8996 39.856 89.9155 43.0258C92.6748 44.7827 95.1532 46.5334 97.0813 48.0457C99.0094 49.5582 100.435 51.1207 100.96 51.6287C101.484 52.1367 101.84 51.8966 101.491 51.2349C101.142 50.5733 99.4247 49.0436 97.4751 47.5142C95.5255 45.9849 93.0455 44.2419 90.2698 42.4745C84.7184 38.9398 78.2029 35.7793 72.3445 33.879L72.3442 33.8794Z" fill="white"/>
<path d="M71.4905 27.0505C73.4798 27.5099 76.4158 29.2065 79.6806 31.0217C82.9455 32.8369 86.5038 35.0707 89.7597 37.2426C93.0158 39.4145 95.5263 41.3154 97.5332 42.8467C99.439 44.4776 100.38 45.5337 100.745 45.5305C100.795 45.5405 100.844 45.5413 100.922 45.5305C101 45.5197 101.131 45.4596 101.197 45.3336C101.264 45.2078 101.238 45.102 101.217 45.0384C101.196 44.9747 101.185 44.941 101.158 44.9005C101.05 44.7388 100.886 44.5874 100.646 44.369C100.167 43.9323 99.3739 43.2901 98.3626 42.5185C96.3399 40.9752 93.4007 38.8705 90.1338 36.6913C86.8668 34.5121 83.2834 32.2591 79.9955 30.4311C78.8267 29.998 73.095 26.9668 71.4901 27.0504H71.49L71.4905 27.0505Z" fill="white"/>
<path d="M68.7717 39.5781C74.8623 42.0641 83.5268 44.9843 89.3101 48.6194C92.4175 50.5927 95.124 52.5583 97.1452 54.171C98.1558 54.9773 98.9999 55.7021 99.6257 56.2774C100.252 56.8528 100.604 57.3751 100.807 57.5177C101.23 57.8161 101.555 57.6178 101.358 57.1436C101.21 56.7855 100.72 56.3748 100.078 55.7852C99.4372 55.1957 98.5789 54.4732 97.5586 53.6591C95.518 52.031 92.7937 50.0355 89.6644 48.0484C83.406 44.0743 75.9242 40.5803 68.772 39.5777L68.7717 39.5781Z" fill="white"/>
<path d="M64.0847 45.103C68.8314 45.1061 78.6366 49.4509 82.7696 51.6284C89.4708 55.2022 95.5645 59.7963 98.9323 63.0068C99.3057 63.3629 99.8513 63.0487 99.4245 62.5541C96.2963 58.9293 89.8355 54.6575 83.0847 51.0571C76.3339 47.4567 69.3437 45.0973 64.0845 45.1026L64.0847 45.103Z" fill="white"/>
<path d="M61.342 51.355C68.4781 52.3992 77.0321 55.2796 83.2644 58.4007C86.7423 60.1666 89.8436 62.058 92.2219 63.7357C94.5999 65.4134 96.3558 67.3023 96.7891 67.791C97.2224 68.2798 97.7385 68.3002 97.3403 67.4367C96.9421 66.5732 95.0053 64.8843 92.5959 63.1845C90.1866 61.4846 87.0651 59.5897 83.5601 57.81C76.5498 54.2506 68.5664 51.4504 61.3422 51.3549L61.342 51.355Z" fill="white"/>
<path d="M63.6973 56.6664C61.9246 56.5118 60.3289 56.8753 58.7031 57.0785C65.0438 56.4843 73.9103 59.3961 79.8208 62.1196C86.7832 65.3836 92.5643 69.8648 95.3339 72.7109C95.7674 73.1564 96.0738 72.5887 95.8457 72.2974C93.267 69.0052 87.1261 64.8048 80.0964 61.5094C74.8244 59.0378 69.0159 57.1307 63.6973 56.6666V56.6664Z" fill="white"/>
<path d="M59.1921 62.381C65.4318 62.8435 73.7859 64.3376 79.6379 67.0239C85.5234 69.7767 89.9897 73.346 92.2368 75.3712C92.5826 75.6828 93.1941 75.4621 92.7093 74.8987C90.6585 72.5159 85.8899 69.2199 79.9326 66.4337C73.9756 63.6474 66.7394 61.8629 59.1919 62.3813L59.1921 62.381Z" fill="white"/>
<path d="M64.7959 67.5738C63.4794 67.5293 62.8619 67.7756 61.5918 67.9128C65.8268 68.0994 72.5569 69.2257 76.2733 70.4874C81.0962 72.1606 85.0617 74.6811 87.3175 76.6493C87.753 77.0293 88.0777 76.5195 87.79 76.1965C85.6774 73.8258 81.3838 71.5554 76.4897 69.8574C72.8194 68.584 68.7454 67.7074 64.7959 67.5738H64.7959Z" fill="white"/>
<path d="M64.6142 73.7152C73.6673 74.3261 79.1416 75.9212 83.3378 79.6802C83.6522 79.9618 84.1486 79.5741 83.8103 79.2077C79.5041 74.5422 71.0257 73.2422 64.614 73.7153L64.6142 73.7152Z" fill="white"/>
<path d="M71.5854 79.1531C68.841 78.9323 66.5446 79.5321 64.0435 80.3649C71.3629 79.1983 74.4063 79.7577 79.9517 82.3619C80.5839 82.6588 80.5468 81.9594 80.2667 81.791C77.3208 80.0203 74.3293 79.3737 71.585 79.1531L71.5854 79.1531Z" fill="white"/>
<path d="M71.3246 84.2512C68.7298 84.4813 66.5265 85.3723 64.71 86.8497C71.9583 84.0559 73.9615 84.6118 79.5053 86.1834C80.2344 86.3901 80.0078 85.6878 79.7218 85.5731C76.4024 84.2422 73.9197 84.0211 71.3247 84.2511L71.3246 84.2512Z" fill="white"/>
<path d="M85.686 88.7405C81.8187 88.3224 77.4619 88.7914 73.638 89.4886C69.8143 90.1859 66.5257 91.6025 64.6694 93.1124C71.027 90.4274 72.1856 90.4331 73.7566 90.1383C77.5237 89.4513 81.2578 89.1835 85.6472 89.3902C86.0453 89.409 86.0249 88.7771 85.6866 88.7405H85.686Z" fill="white"/>
<path d="M87.9307 91.8706C83.7397 91.7123 79.411 92.7494 75.6661 93.8196C71.9216 94.8898 69.1422 96.3501 67.3093 97.8408C71.0179 96.0569 74.469 94.8494 75.8432 94.4495C79.5354 93.3942 83.2602 92.4807 87.9702 92.5399C88.3361 92.5446 88.5726 91.8948 87.9308 91.8706L87.9307 91.8706Z" fill="white"/>
<path d="M91.3532 94.4472C87.406 95.0299 83.2675 96.1957 79.6594 97.4197C76.0516 98.6438 73.4836 100.098 71.8083 101.838C76.0996 99.3746 78.4597 98.5109 79.8561 98.0301C83.4196 96.821 86.747 95.9797 91.4709 95.0968C92.0379 94.9908 91.5826 94.4132 91.3528 94.4472H91.3532Z" fill="white"/>
<path d="M93.3607 97.7352C85.445 98.9961 80.3153 102.411 77.0549 105.798C82.1078 101.991 85.6228 99.9451 93.4983 98.3846C93.9967 98.2858 93.8462 97.6575 93.3605 97.7349L93.3607 97.7352Z" fill="white"/>
<path d="M97.2179 100.628C89.2563 101.854 84.6649 106.694 82.7529 109.889C87.7902 104.857 91.7105 102.118 97.3554 101.278C97.9267 101.193 97.7809 100.541 97.2176 100.628L97.2179 100.628Z" fill="white"/>
<path d="M99.6206 103.149C98.3789 103.304 96.6892 104.184 95.0928 105.197C93.4963 106.21 92.2918 107.442 91.5735 109.03C93.4965 107.045 94.2663 106.508 95.4471 105.748C96.9798 104.775 98.5244 104.163 99.7781 103.799C100.366 103.628 99.9216 103.112 99.6206 103.149H99.6206Z" fill="white"/>
<path d="M160.686 58.8242C160.686 60.3691 159.434 61.6215 157.889 61.6215C156.344 61.6215 155.092 60.3691 155.092 58.8242C155.092 57.2794 156.344 56.0269 157.889 56.0269C159.434 56.0269 160.686 57.2793 160.686 58.8242Z" fill="white" stroke="white" stroke-width="0.660673"/>
<path d="M160.686 58.8242C160.686 60.3691 159.434 61.6215 157.889 61.6215C156.344 61.6215 155.092 60.3691 155.092 58.8242C155.092 57.2794 156.344 56.0269 157.889 56.0269C159.434 56.0269 160.686 57.2793 160.686 58.8242Z" fill="#37C871" stroke="white" stroke-width="0.660673"/>
  </symbol>
  <symbol id="ico-matlab-light" viewBox="0 0 256 256">
    <path d="M33 138.187L86.7974 116.452C92.2581 109.236 98.4069 102.567 105.157 96.5398C109.612 94.1774 117.982 95.4598 133.305 76.4249C148.155 57.8625 152.88 42 159.832 42C170.835 42 178.935 65.7599 191.22 101.737C199.979 129.218 210.254 156.192 221.999 182.535C209.175 170.587 198.24 157.695 185.752 158.032C174.142 158.302 161.25 172.072 147.142 189.757C135.937 203.932 121.087 213.652 115.282 213.45C115.282 213.45 100.297 171.06 87.7423 164.175C85.1376 163.111 82.318 162.678 79.514 162.913C76.7101 163.147 74.0016 164.042 71.6099 165.525L33 138.12V138.187Z" fill="#4499DD"/>
<path d="M153.151 46.8613C148.629 52.9363 143.161 64.0738 133.306 76.4262C117.984 95.4612 109.681 94.1787 105.159 96.5412C98.3761 102.536 92.2242 109.208 86.7988 116.454L109.074 132.721C127.974 106.936 138.099 78.9912 145.996 60.9013C147.974 56.0246 150.368 51.3272 153.151 46.8613V46.8613Z" fill="url(#matlab-light-paint0_linear_601_132)"/>
<path d="M159.9 42C145.185 42 135.128 119.49 80.7905 162.757C96.0455 160.26 109.275 198.127 115.35 213.45C142.35 208.86 163.95 157.222 185.753 158.032C198.24 158.505 209.175 170.587 222 182.535C192.705 120.975 179.003 42 159.9 42Z" fill="url(#matlab-light-paint1_linear_601_132)"/>

  </symbol>
  <symbol id="ico-arch-light" viewBox="0 0 256 256">
    <g clip-path="url(#arch-light-clip0_33_628)">

<g clip-path="url(#arch-light-clip1_33_628)">
<path d="M127.5 41C119.711 60.0976 114.981 72.6074 106.309 91.1373C111.626 96.7737 118.161 103.313 128.76 110.727C117.365 106.037 109.597 101.342 103.788 96.4565C92.6887 119.617 75.2882 152.594 40 216C67.7284 199.992 89.2239 190.118 109.257 186.349C108.4 182.655 107.942 178.64 107.975 174.472L107.996 173.596C108.436 155.826 117.682 142.163 128.632 143.09C139.582 144.018 148.106 159.18 147.666 176.95C147.583 180.297 147.194 183.513 146.534 186.499C166.351 190.377 187.644 200.207 215 216C209.605 206.068 204.773 197.119 200.175 188.592C192.931 182.978 185.38 175.674 169.968 167.764C180.561 170.516 188.153 173.699 194.065 177.249C147.31 90.2001 143.533 78.6253 127.5 41Z" fill="#1793D1"/>
<path d="M176.755 145.015C138.825 93.5323 130.033 52.0391 127.806 42.1328C148.039 88.8013 147.901 89.3736 176.755 145.015Z" fill="white" fill-opacity="0.16568"/>
<path d="M127.821 41.7482C126.848 44.1402 125.9 46.4614 125.002 48.6696C124.006 51.1157 123.059 53.451 122.118 55.7405C121.177 58.03 120.244 60.2643 119.319 62.4696C118.394 64.6751 117.467 66.8554 116.521 69.0492C115.574 71.243 114.622 73.4596 113.615 75.7143C112.609 77.969 111.558 80.2689 110.454 82.657C109.349 85.0452 108.191 87.5185 106.95 90.1125C106.778 90.4718 106.57 90.8807 106.395 91.2447C111.696 96.8591 118.222 103.356 128.761 110.727C117.395 106.05 109.635 101.372 103.831 96.4998C103.53 97.115 103.266 97.6643 102.956 98.2943C102.547 99.1234 102.056 100.066 101.631 100.922C100.885 102.451 100.106 104.022 99.3027 105.643C98.9939 106.257 98.7229 106.788 98.4054 107.416C93.3329 117.596 87.04 129.782 78.9443 144.928C101.138 132.424 125.076 114.384 168.559 129.911C166.379 125.781 164.375 121.909 162.492 118.268C160.61 114.627 158.861 111.217 157.237 107.993C155.614 104.769 154.113 101.729 152.708 98.8497C151.304 95.9705 150.002 93.2529 148.778 90.6465C147.553 88.0402 146.4 85.5323 145.317 83.127C144.234 80.7218 143.201 78.4175 142.22 76.1415C141.238 73.8654 140.298 71.631 139.378 69.4124C138.459 67.1938 137.561 64.9805 136.665 62.7473C136.345 61.9494 136.025 61.1181 135.704 60.312C133.251 54.553 130.732 48.5855 127.821 41.7482Z" fill="url(#arch-light-paint0_linear_33_628)"/>
</g>
</g>

  </symbol>
  <symbol id="ico-elastic-light" viewBox="0 0 256 256">
    <path d="M173.5 98H121.25C121.5 99.25 122 100.5 122.25 101.5C124 107.5 125 113.75 125.5 120.25C125.75 122.75 125.75 125.5 125.75 128C125.75 130.5 125.75 133.25 125.5 135.75C125 142.25 124 148.5 122.25 154.5C122 155.75 121.5 157 121.25 158H173.5C190 158 203.25 144.5 203.25 128C203.25 111.5 190 98 173.5 98Z" fill="#00A9E5"/>
<path d="M125.5 135.75C125.75 133.25 125.75 130.5 125.75 128C125.75 125.5 125.75 122.75 125.5 120.25C125 113.75 124 107.5 122.25 101.5C122 100.25 121.5 99 121.25 98H40.5C37.5 107.5 36 117.5 36 128C36 138.5 37.5 148.5 40.5 158H121.25C121.5 156.75 122 155.5 122.25 154.5C124 148.5 125 142.25 125.5 135.75Z" fill="#353535"/>
<path d="M182.5 168H117.5C115.5 172.5 113.25 176.75 110.75 180.75C107 187 102.5 192.5 97.5001 197.75C95.7501 199.5 94.0001 201 92.2501 202.75C88.7501 206 84.7501 208.75 80.7501 211.5C96.5001 222 115.5 228 135.75 228C170.5 228 201 210.25 219 183.5C209.75 174 196.75 168 182.5 168Z" fill="#00BFB3"/>
<path d="M110.75 180.75C113.25 176.75 115.5 172.5 117.5 168H44.25C52 185.75 64.75 201 81 211.5C85 208.75 88.75 206 92.5 202.75C94.25 201.25 96 199.5 97.75 197.75C102.5 192.75 107 187 110.75 180.75Z" fill="#019B8F"/>
<path d="M97.5 58.25C95.75 56.5 94 55 92.25 53.25C88.75 50 84.75 47.25 80.75 44.5C64.75 55 52 70.25 44 88H117.5C115.5 83.5 113 79 110.5 75C107 68.75 102.5 63.25 97.5 58.25Z" fill="#F9B110"/>
<path d="M135.75 28C115.5 28 96.5001 34 80.7501 44.5C84.7501 47.25 88.5001 50 92.2501 53.25C94.0001 54.75 95.7501 56.5 97.5001 58.25C102.5 63.5 107 69 110.75 75.25C113.25 79.25 115.5 83.5 117.5 88H182.5C196.75 88 209.75 82 219 72.5C201 45.75 170.5 28 135.75 28Z" fill="#FED10A"/>
  </symbol>
  <symbol id="ico-qdrant-light" viewBox="0 0 256 256">
    <g transform="translate(41.4,28.0) scale(0.500000)">
    
  <g id="qdrant-light-Vectors">
    <g>
      <g>
        <polygon fill="#dc244c" points="173.21 0 0 100 0 300 173.21 400 238.16 362.5 238.16 287.5 173.21 325 64.96 262.5 64.96 137.5 173.21 75 281.46 137.5 281.46 387.5 346.42 350 346.42 100 173.21 0"/>
        <polygon fill="#dc244c" points="108.26 162.5 108.26 237.5 173.21 275 238.16 237.5 238.16 162.5 173.21 125 108.26 162.5"/>
      </g>
      <g>
        <polygon fill="#9e0d38" points="238.16 287.5 238.16 362.5 173.21 400 173.21 325 238.16 287.5"/>
        <polygon fill="#9e0d38" points="346.42 100 346.42 350 281.46 387.5 281.46 137.5 346.42 100"/>
        <polygon fill="#ff516b" points="346.42 100 281.46 137.5 173.21 75 64.96 137.5 0 100 173.21 0 346.42 100"/>
        <polygon fill="#dc244c" points="173.21 325 173.21 400 0 300 0 100 64.96 137.5 64.96 262.5 173.21 325"/>
        <polygon fill="#ff516b" points="238.16 162.5 173.21 200 108.26 162.5 173.21 125 238.16 162.5"/>
        <polygon fill="#dc244c" points="173.21 200 173.21 275 108.26 237.5 108.26 162.5 173.21 200"/>
        <polygon fill="#9e0d38" points="238.16 162.5 238.16 237.5 173.21 275 173.21 200 238.16 162.5"/>
      </g>
    </g>
  </g>
  </g>
  </symbol>
  </defs>

  <g class="marquee">
    <use href="#ico-vscode-light" x="4" y="4" width="44" height="44"/>
    <use href="#ico-uv-light" x="60" y="4" width="44" height="44"/>
    <use href="#ico-claude-light" x="116" y="4" width="44" height="44"/>
    <use href="#ico-latex-light" x="172" y="4" width="44" height="44"/>
    <use href="#ico-matlab-light" x="228" y="4" width="44" height="44"/>
    <use href="#ico-arch-light" x="284" y="4" width="44" height="44"/>
    <use href="#ico-elastic-light" x="340" y="4" width="44" height="44"/>
    <use href="#ico-qdrant-light" x="396" y="4" width="44" height="44"/>
    <use href="#ico-vscode-light" x="452" y="4" width="44" height="44"/>
    <use href="#ico-uv-light" x="508" y="4" width="44" height="44"/>
    <use href="#ico-claude-light" x="564" y="4" width="44" height="44"/>
    <use href="#ico-latex-light" x="620" y="4" width="44" height="44"/>
    <use href="#ico-matlab-light" x="676" y="4" width="44" height="44"/>
    <use href="#ico-arch-light" x="732" y="4" width="44" height="44"/>
    <use href="#ico-elastic-light" x="788" y="4" width="44" height="44"/>
    <use href="#ico-qdrant-light" x="844" y="4" width="44" height="44"/>
  </g>
</svg>
