<svg xmlns="http://www.w3.org/2000/svg" viewBox="0 0 448 52" fill="none">
  <style>
    @keyframes scroll-left {
      from { transform: translateX(0px); }
      to { transform: translateX(-448px); }
    }
    .marquee {
      animation: scroll-left 30s linear infinite;
    }
  </style>

  <defs>
<linearGradient id="python-light-paint0_linear_2_47" x1="47.22" x2="146.333" y1="46.896" y2="145.02" gradientUnits="userSpaceOnUse"><stop stop-color="#387EB8"/><stop offset="1" stop-color="#366994"/></linearGradient><linearGradient id="python-light-paint1_linear_2_47" x1="108.056" x2="214.492" y1="109.905" y2="210.522" gradientUnits="userSpaceOnUse"><stop stop-color="#FFE052"/><stop offset="1" stop-color="#FFC331"/></linearGradient>
  <symbol id="ico-python-light" viewBox="0 0 256 256">
    <path fill="url(#python-light-paint0_linear_2_47)" d="M127.279 29C76.5066 29 79.6772 51.018 79.6772 51.018L79.7338 73.8284H128.185V80.6772H60.4893C60.4893 80.6772 28 76.9926 28 128.222C28 179.452 56.3573 177.636 56.3573 177.636H73.2812V153.863C73.2812 153.863 72.369 125.506 101.186 125.506H149.24C149.24 125.506 176.239 125.942 176.239 99.4123V55.5461C176.239 55.5461 180.338 29 127.279 29ZM100.563 44.339C105.384 44.339 109.28 48.2351 109.28 53.0556C109.28 57.8761 105.384 61.7723 100.563 61.7723C95.7426 61.7723 91.8465 57.8761 91.8465 53.0556C91.8465 48.2351 95.7426 44.339 100.563 44.339Z"/><path fill="url(#python-light-paint1_linear_2_47)" d="M128.721 227.958C179.493 227.958 176.323 205.941 176.323 205.941L176.266 183.13H127.815V176.281H195.511C195.511 176.281 228 179.966 228 128.736C228 77.5062 199.643 79.323 199.643 79.323H182.719V103.096C182.719 103.096 183.631 131.453 154.814 131.453H106.76C106.76 131.453 79.7607 131.016 79.7607 157.546V201.412C79.7607 201.412 75.6615 227.958 128.721 227.958ZM155.437 212.619C150.616 212.619 146.72 208.723 146.72 203.903C146.72 199.082 150.616 195.186 155.437 195.186C160.257 195.186 164.154 199.082 164.154 203.903C164.154 208.723 160.257 212.619 155.437 212.619Z"/>
  </symbol>
  <symbol id="ico-pytorch-light" viewBox="0 0 256 256">
    <path d="M180.975 90.4153L167.567 103.824C189.508 125.765 189.508 161.115 167.567 182.65C145.625 204.591 110.275 204.591 88.7404 182.65C66.7991 160.709 66.7991 125.359 88.7404 103.824L123.481 69.0835L128.357 64.2077V38L75.9413 90.4153C46.6862 119.67 46.6862 166.804 75.9413 196.059C105.196 225.314 152.33 225.314 180.975 196.059C210.23 166.6 210.23 119.67 180.975 90.4153Z" fill="#EE4C2C"/>
<path d="M154.77 87.1705C160.156 87.1705 164.522 82.8045 164.522 77.4188C164.522 72.0331 160.156 67.667 154.77 67.667C149.385 67.667 145.019 72.0331 145.019 77.4188C145.019 82.8045 149.385 87.1705 154.77 87.1705Z" fill="#EE4C2C"/>
  </symbol>
  <symbol id="ico-tensorflow-light" viewBox="0 0 256 256">
    <path d="M124.228 229L90.623 208.89V90.31L40 120.459L40.123 75.545L124.228 26V229ZM131.784 26V229L165.393 208.89V151.781L190.763 166.895L190.612 127.833L165.393 112.988V90.31L216 120.459L215.878 75.545L131.784 26Z" fill="#FF6F00"/>
  </symbol>
  <symbol id="ico-huggingface-light" viewBox="0 0 256 256">
    <g transform="translate(28.0,35.6) scale(0.421053)">
    <path d="M235.793 396.126a187.281 187.281 0 00187.285-187.284A187.283 187.283 0 00235.793 21.558 187.287 187.287 0 0048.509 208.842a187.286 187.286 0 00187.284 187.284z" fill="#FFD21E"/><path d="M423.078 208.842A187.283 187.283 0 00235.793 21.558 187.283 187.283 0 0048.509 208.842a187.283 187.283 0 00319.714 132.43 187.284 187.284 0 0054.855-132.43zm-396.127 0a208.842 208.842 0 11417.685 0 208.842 208.842 0 01-417.685 0z" fill="#FF9D0B"/><path d="M296.641 157.912c6.898 2.371 9.593 16.491 16.545 12.827a26.946 26.946 0 008.24-40.841 26.952 26.952 0 00-28.632-8.767 26.942 26.942 0 00-19.055 23.099 26.943 26.943 0 003.014 15.352c3.288 6.198 13.744-3.88 19.941-1.724l-.053.054zm-126.923 0c-6.898 2.371-9.647 16.491-16.545 12.827a26.946 26.946 0 01-8.24-40.841 26.952 26.952 0 0128.632-8.767 26.944 26.944 0 0116.041 38.451c-3.288 6.198-13.797-3.88-19.941-1.724l.053.054z" fill="#3A3B45"/><path d="M234.446 287.205c52.979 0 70.063-47.212 70.063-71.464 0-12.612-8.461-8.624-22.043-1.941-12.557 6.198-29.426 14.768-47.966 14.768-38.75 0-70.063-37.08-70.063-12.827 0 24.252 17.031 71.464 70.063 71.464h-.054z" fill="#FF323D"/><path fill-rule="evenodd" clip-rule="evenodd" d="M193.863 274.863a46.895 46.895 0 0128.565-24.199c2.155-.646 4.365 3.072 6.682 6.899 2.156 3.665 4.42 7.384 6.683 7.384 2.426 0 4.851-3.665 7.168-7.276 2.426-3.773 4.797-7.438 7.115-6.737a46.403 46.403 0 0126.947 22.474c20.103-15.845 27.486-41.715 27.486-57.667 0-12.612-8.461-8.624-22.043-1.941l-.754.378c-12.45 6.198-29.05 14.39-47.266 14.39-18.216 0-34.762-8.192-47.266-14.39-14.012-6.953-22.797-11.318-22.797 1.563 0 16.438 7.869 43.439 29.48 59.122z" fill="#3A3B45"/><path d="M362.446 183.242a17.515 17.515 0 10.002-35.03 17.515 17.515 0 00-.002 35.03zm-250.61 0a17.515 17.515 0 100-35.03 17.515 17.515 0 000 35.03zM75.78 242.526c-8.731 0-16.492 3.557-21.935 10.079a32.173 32.173 0 00-7.168 20.264 38.275 38.275 0 00-10.456-1.617c-8.353 0-15.899 3.18-21.234 8.947a31.257 31.257 0 00-4.312 37.726 28.566 28.566 0 00-9.647 15.198 31.512 31.512 0 004.312 25.546 28.136 28.136 0 00-1.995 27.056c5.498 12.503 19.24 22.312 45.919 32.875 16.545 6.576 31.744 10.779 31.851 10.833a238.92 238.92 0 0058.907 8.623c31.583 0 54.165-9.701 67.153-28.779 20.911-30.666 17.947-58.746-9.162-85.801-14.929-14.983-24.899-37.025-26.947-41.876-4.204-14.336-15.306-30.289-33.684-30.289a30.716 30.716 0 00-24.792 13.258c-5.389-6.79-10.671-12.126-15.414-15.198a39.885 39.885 0 00-21.396-6.845zm0 21.558c2.749 0 6.144 1.186 9.809 3.503 11.533 7.33 33.684 45.434 41.822 60.255 2.695 4.958 7.384 7.06 11.534 7.06 8.353 0 14.821-8.246.808-18.755-21.127-15.792-13.743-41.607-3.665-43.17.431-.108.916-.108 1.294-.108 9.162 0 13.204 15.791 13.204 15.791s11.857 29.75 32.229 50.122c20.318 20.319 21.396 36.649 6.575 58.368-10.132 14.821-29.48 19.295-49.368 19.295-20.533 0-41.66-4.851-53.463-7.869-.593-.162-72.489-20.48-63.38-37.726 1.509-2.911 4.042-4.096 7.222-4.096 12.826 0 36.11 19.078 46.187 19.078 2.21 0 3.773-.916 4.474-3.233 4.257-15.36-64.997-21.828-59.177-44.032 1.078-3.935 3.827-5.498 7.761-5.498 16.923 0 54.973 29.804 62.95 29.804.592 0 1.077-.161 1.293-.539 3.988-6.467 1.778-10.994-26.409-28.025-28.079-17.031-47.858-27.271-36.648-39.505 1.293-1.401 3.126-2.048 5.39-2.048 17.084 0 57.451 36.756 57.451 36.756s10.887 11.318 17.516 11.318c1.509 0 2.802-.539 3.665-2.048 4.635-7.868-43.44-44.301-46.134-59.338-1.833-10.24 1.293-15.36 7.06-15.36z" fill="#FF9D0B"/><path d="M189.39 397.15c14.821-21.773 13.743-38.103-6.575-58.422-20.372-20.318-32.229-50.122-32.229-50.122s-4.419-17.246-14.498-15.629c-10.078 1.617-17.462 27.378 3.665 43.169 21.073 15.792-4.204 26.517-12.342 11.696-8.084-14.821-30.289-52.925-41.822-60.255-11.48-7.276-19.564-3.233-16.87 11.857 2.696 15.037 50.824 51.47 46.135 59.284-4.689 7.923-21.181-9.216-21.181-9.216s-51.577-46.942-62.841-34.708c-11.21 12.234 8.569 22.474 36.648 39.505 28.187 17.031 30.397 21.558 26.409 28.025-4.042 6.468-66.183-45.972-72.004-23.713-5.82 22.15 63.434 28.564 59.177 43.924-4.312 15.36-48.829-28.996-57.883-11.749-9.162 17.3 62.787 37.618 63.38 37.78 23.175 6.036 82.189 18.809 102.831-11.426z" fill="#FFD21E"/><path d="M398.502 242.526c8.731 0 16.545 3.557 21.935 10.079a32.173 32.173 0 017.168 20.264 38.272 38.272 0 0110.509-1.617c8.354 0 15.899 3.18 21.235 8.947a31.257 31.257 0 014.311 37.726 28.564 28.564 0 019.594 15.198 31.513 31.513 0 01-4.312 25.546 28.142 28.142 0 011.994 27.056c-5.497 12.503-19.24 22.312-45.864 32.875-16.6 6.576-31.798 10.779-31.906 10.833a238.914 238.914 0 01-58.907 8.623c-31.582 0-54.164-9.701-67.153-28.779-20.911-30.667-17.947-58.746 9.162-85.801 14.983-14.983 24.954-37.026 27.002-41.876 4.203-14.336 15.252-30.289 33.63-30.289a30.716 30.716 0 0124.792 13.258c5.389-6.791 10.671-12.126 15.467-15.198a39.888 39.888 0 0121.343-6.845zm0 21.558c-2.749 0-6.09 1.186-9.809 3.503-11.48 7.33-33.684 45.434-41.822 60.255a13.106 13.106 0 01-11.534 7.06c-8.3 0-14.821-8.246-.754-18.756 21.072-15.791 13.689-41.606 3.61-43.169a8.233 8.233 0 00-1.293-.108c-9.162 0-13.204 15.791-13.204 15.791s-11.857 29.75-32.175 50.122c-20.373 20.319-21.45 36.649-6.576 58.368 10.079 14.821 29.481 19.295 49.314 19.295 20.588 0 41.661-4.851 53.518-7.869.539-.162 72.488-20.48 63.38-37.726-1.563-2.911-4.042-4.096-7.222-4.096-12.827 0-36.163 19.078-46.188 19.078-2.263 0-3.826-.916-4.473-3.233-4.312-15.36 64.943-21.828 59.122-44.032-1.024-3.935-3.772-5.498-7.76-5.498-16.923 0-54.973 29.804-62.949 29.804-.539 0-1.024-.161-1.24-.539-3.988-6.467-1.832-10.994 26.301-28.025 28.187-17.031 47.966-27.271 36.648-39.505-1.24-1.401-3.072-2.048-5.282-2.048-17.138 0-57.505 36.756-57.505 36.756s-10.887 11.318-17.462 11.318a3.99 3.99 0 01-3.665-2.048c-4.689-7.868 43.385-44.301 46.08-59.338 1.832-10.24-1.294-15.36-7.06-15.36z" fill="#FF9D0B"/><path d="M284.945 397.15c-14.821-21.773-13.797-38.103 6.576-58.422 20.318-20.318 32.175-50.122 32.175-50.122s4.419-17.246 14.551-15.629c10.025 1.617 17.408 27.378-3.664 43.169-21.127 15.792 4.203 26.517 12.287 11.696 8.139-14.821 30.343-52.925 41.823-60.255 11.479-7.276 19.617-3.233 16.869 11.857-2.695 15.037-50.769 51.47-46.08 59.284 4.635 7.923 21.127-9.216 21.127-9.216s51.631-46.942 62.841-34.708c11.21 12.234-8.515 22.474-36.649 39.505-28.186 17.031-30.342 21.558-26.408 28.025 4.042 6.468 66.183-45.972 72.003-23.713 5.821 22.15-63.38 28.564-59.122 43.924 4.311 15.36 48.775-28.996 57.883-11.749 9.108 17.3-62.788 37.618-63.38 37.78-23.229 6.036-82.244 18.809-102.832-11.426z" fill="#FFD21E"/>
  </g>
  </symbol>
  <symbol id="ico-numpy-light" viewBox="0 0 256 256">
    <g transform="translate(28.0,28.0) scale(6.250000)">
    <polygon points="14.048 7.689 9.405 5.327 4.309 7.89 9.078 10.303 14.048 7.689" fill="#4dabcf"/><polygon points="16.177 8.771 21.045 11.247 15.994 13.803 11.218 11.386 16.177 8.771" fill="#4dabcf"/><polygon points="22.678 5.363 27.679 7.89 23.207 10.153 18.328 7.674 22.678 5.363" fill="#4dabcf"/><polygon points="20.526 4.274 16.023 2 11.57 4.239 16.209 6.597 20.526 4.274" fill="#4dabcf"/><polygon points="17.006 23.809 17.006 30 22.46 27.258 22.454 21.064 17.006 23.809" fill="#4dabcf"/><polygon points="22.452 18.903 22.446 12.774 17.006 15.499 17.006 21.63 22.452 18.903" fill="#4dabcf"/><polygon points="29 17.754 29 23.969 24.348 26.308 24.345 20.122 29 17.754" fill="#4dabcf"/><polygon points="29 15.581 29 9.491 24.339 11.826 24.343 17.967 29 15.581" fill="#4dabcf"/><path d="M15.08,15.5l-3.674-1.861v8.045S6.913,12.05,6.5,11.185a.9.9,0,0,0-.331-.264C5.361,10.5,3,9.29,3,9.29V23.5L6.266,25.26V17.832s4.445,8.607,4.49,8.7a4.026,4.026,0,0,0,.968,1.32c.635.423,3.357,2.073,3.357,2.073Z" fill="#4d77cf"/>
  </g>
  </symbol>
  <symbol id="ico-jupyter-light" viewBox="0 0 256 256">
    <g transform="translate(42.7,28.0) scale(0.666667)">
    <g>
				<path d="M10.5838307,156.409656 L10.5838307,156.196646 L10.5838307,123.657627 L17.7200527,123.657627 L17.7200527,158.912657 C18.0516208,161.753926 17.8075656,164.63288 17.0023629,167.377784 C16.19722,170.122687 14.8474392,172.677251 13.0335946,174.88924 C9.6624625,177.797086 5.34298451,179.369568 0.891381719,179.309391 L0.145805038,173.983903 C3.01718628,173.985518 5.78730255,172.922981 7.92105685,171.001585 C9.83826599,168.76489 10.5838307,165.729334 10.5838307,156.409656 Z M63.8037763,152.209035 C63.8037763,156.203166 63.8037763,159.771277 64.1232613,162.860071 L57.7859014,162.860071 L57.3598815,156.522711 C56.0343268,158.765028 54.1386519,160.616318 51.8656486,161.888456 C49.5925854,163.160593 47.0232464,163.808237 44.4187946,163.765408 C38.2412071,163.765408 30.8919752,160.410366 30.8919752,146.723715 L30.8919752,123.983721 L38.0281972,123.983721 L38.0281972,145.285823 C38.0281972,152.688352 40.3181887,157.641058 46.7620834,157.641058 C48.0878176,157.655354 49.4030239,157.404719 50.6306575,156.903927 C51.8582911,156.403136 52.9735276,155.662296 53.9110465,154.724777 C54.8485056,153.787318 55.5894046,152.672022 56.0901963,151.444448 C56.5909282,150.216815 56.8415633,148.901549 56.8273268,147.575814 L56.8273268,123.717444 L63.9634889,123.717444 L63.9634889,151.996025 L63.8037763,152.209035 Z M77.330762,136.653806 C77.330762,131.70104 77.330762,127.653648 77.0112304,123.979032 L83.4018876,123.979032 L83.7213726,130.635931 C85.1452074,128.23088 87.1949721,126.257257 89.6521533,124.925482 C92.1093944,123.593709 94.8819333,122.953703 97.6742718,123.073695 C107.153723,123.073695 114.289945,131.008713 114.289945,142.831393 C114.289945,156.784292 105.715831,163.707504 96.4493898,163.707504 C94.0776877,163.813321 91.7187865,163.305232 89.6009496,162.232346 C87.4831127,161.159401 85.6780613,159.558028 84.3604623,157.583154 L84.3604623,178.885226 L77.330762,178.885226 L77.330762,136.813578 L77.330762,136.653806 Z M84.3604623,147.038594 C84.3797833,148.004885 84.4867369,148.967408 84.6800071,149.914378 C85.2842232,152.279021 86.6597255,154.374666 88.5887785,155.869683 C90.5178913,157.364761 92.8904309,158.173852 95.3310427,158.168947 C102.840047,158.168947 107.260258,152.044597 107.260258,143.150938 C107.260258,135.375686 103.106354,128.718758 95.59735,128.718758 C92.6257387,128.962101 89.844945,130.280974 87.7762781,132.428062 C85.7076111,134.575149 84.4931374,137.403079 84.3604623,140.381689 L84.3604623,147.038594 Z M127.004503,123.94359 L135.578617,146.896647 C136.483954,149.452886 137.442529,152.54168 138.081618,154.831671 C138.827183,152.488442 139.625985,149.506124 140.58462,146.736875 L148.359872,123.94359 L155.868876,123.94359 L145.21784,151.636343 C139.892293,164.950152 136.643726,171.820127 131.744199,175.97403 C129.27643,178.228071 126.267791,179.805756 123.010354,180.553953 L121.252929,174.589376 C123.530581,173.840999 125.645092,172.666304 127.48382,171.127799 C130.081872,169.010501 132.14366,166.310102 133.501635,163.246013 C133.792288,162.715372 133.990404,162.139031 134.087428,161.541814 C134.026892,160.899135 133.865146,160.270094 133.60817,159.677902 L119.122716,123.837079 L126.897968,123.837079 L127.004503,123.94359 Z M174.813541,112.770851 L174.813541,123.954441 L185.038557,123.954441 L185.038557,129.279989 L174.813541,129.279989 L174.813541,150.262575 C174.813541,155.055568 176.198196,157.824817 180.139089,157.824817 C181.538758,157.847727 182.935316,157.686579 184.292992,157.345559 L184.612537,162.671047 C182.57671,163.376355 180.428486,163.701283 178.275118,163.629682 C176.849069,163.718929 175.420569,163.498622 174.087657,162.983833 C172.754744,162.469044 171.549004,161.671976 170.553103,160.647363 C168.383883,157.745977 167.394359,154.130491 167.783854,150.528882 L167.783854,129.226751 L161.712742,129.226751 L161.712742,123.901204 L167.890329,123.901204 L167.890329,114.421764 L174.813541,112.770851 Z M198.184399,144.647511 C198.03988,146.453639 198.289199,148.269577 198.915189,149.969888 C199.541179,151.670199 200.528884,153.214267 201.810114,154.495437 C203.091285,155.776667 204.635352,156.764373 206.335664,157.390363 C208.035975,158.016352 209.851913,158.265672 211.658041,158.121153 C215.311153,158.202863 218.940457,157.513288 222.309077,156.097409 L223.533958,161.422956 C219.400274,163.12572 214.955358,163.942168 210.486396,163.819423 C207.881107,163.997798 205.268101,163.61054 202.826592,162.684147 C200.385023,161.757814 198.172795,160.3143 196.341489,158.452721 C194.51022,156.591082 193.103284,154.355345 192.217196,151.898941 C191.331104,149.442478 190.986827,146.82349 191.207978,144.221491 C191.207978,132.505346 198.184399,123.238905 209.581059,123.238905 C222.362314,123.238905 225.557643,134.422495 225.557643,141.558717 C225.625954,142.658281 225.625954,143.761016 225.557643,144.860581 L198.024687,144.860581 L198.184399,144.647511 Z M219.06051,139.322023 C219.266043,137.898188 219.163995,136.446897 218.761184,135.065892 C218.358433,133.684886 217.664311,132.406228 216.725656,131.316115 C215.786941,130.226062 214.625525,129.349856 213.31959,128.746561 C212.013656,128.143278 210.59353,127.826939 209.155039,127.818864 C206.228949,128.030665 203.487515,129.327603 201.467959,131.455549 C199.448402,133.583436 198.296377,136.388874 198.237697,139.322023 L219.06051,139.322023 Z M236.385366,136.053478 C236.385366,131.473555 236.385366,127.532637 236.065834,123.911277 L242.456492,123.911277 L242.456492,131.526792 L242.775977,131.526792 C243.446769,129.176325 244.83268,127.093027 246.741335,125.566097 C248.64999,124.039161 250.986699,123.144369 253.427072,123.005938 C254.098762,122.917777 254.779066,122.917777 255.450756,123.005938 L255.450756,129.66288 C254.63688,129.568608 253.814868,129.568608 253.000992,129.66288 C250.58353,129.756495 248.282771,130.726973 246.528505,132.393068 C244.774238,134.059104 243.686458,136.306745 243.468304,138.716252 C243.269171,139.805946 243.162278,140.910475 243.148819,142.018055 L243.148819,162.734394 L236.11909,162.734394 L236.11909,136.106715 L236.385366,136.053478 Z" fill="#000000">

</path>
				<path d="M233.257943,16.9621357 C233.476636,20.5398773 232.625434,24.1017075 230.812666,27.1939108 C228.999898,30.286174 226.307754,32.7687777 223.079047,34.3255867 C219.85034,35.8823358 216.231324,36.4427655 212.683013,35.9355136 C209.134702,35.4282017 205.817704,33.8761781 203.154559,31.4770796 C200.491421,29.0780409 198.602703,25.9404959 197.729013,22.4642047 C196.855323,18.9879135 197.036209,15.330196 198.248625,11.9570899 C199.461041,8.5839838 201.650109,5.64808944 204.536953,3.52346926 C207.423803,1.39884909 210.877782,0.181657262 214.458814,0.0269503701 C216.806708,-0.10224713 219.156996,0.233972409 221.374429,1.01627461 C223.591922,1.79857323 225.632893,3.01152758 227.379981,4.58537259 C229.12701,6.15922358 230.54576,8.06291398 231.554522,10.1869719 C232.563283,12.3110298 233.142196,14.6135829 233.257943,16.9621357 Z" fill="#767677">

</path>
				<path d="M127.952969,225.540984 C80.0236372,225.540984 37.8984531,208.339518 16.1170646,182.936721 C24.5683135,205.78944 39.8176362,225.504615 59.8124569,239.428562 C79.8070981,253.352629 103.588124,260.816651 127.952969,260.816651 C152.318411,260.816651 176.098839,253.352629 196.094019,239.428562 C216.0886,225.504615 231.337863,205.78944 239.789471,182.936721 C218.061379,208.339518 176.095848,225.540984 127.952969,225.540984 Z" fill="#F37726">

</path>
				<path d="M127.952969,60.3543133 C175.882898,60.3543133 218.008142,77.5557785 239.789471,102.958396 C231.337863,80.1058563 216.0886,60.3906823 196.094019,46.4667348 C176.098839,32.5427873 152.318411,25.0784666 127.952969,25.0784666 C103.588124,25.0784666 79.8070981,32.5427873 59.8124569,46.4667348 C39.8176362,60.3906823 24.5683135,80.1058563 16.1170646,102.958396 C37.8984531,77.502541 79.8106871,60.3543133 127.952969,60.3543133 Z" fill="#F37726">

</path>
				<path d="M61.9716874,274.975202 C62.2528294,279.48161 61.186045,283.969713 58.9072992,287.867658 C56.6284936,291.765602 53.2409116,294.896926 49.1761363,296.862707 C45.1113611,298.828488 40.5533909,299.539717 36.0829934,298.905772 C31.6125362,298.271767 27.4320141,296.321359 24.0740419,293.30297 C20.7160636,290.284582 18.3326671,286.334835 17.2274978,281.957035 C16.1223339,277.579176 16.3454363,272.971497 17.868382,268.720869 C19.3913284,264.470301 22.1451683,260.769335 25.7790187,258.089483 C29.4129289,255.40962 33.7623156,253.872201 38.2730898,253.673106 C41.2280121,253.515051 44.1851476,253.940738 46.9755719,254.925846 C49.7659364,255.910962 52.3349165,257.436187 54.5356604,259.414404 C56.7364042,261.392633 58.5259031,263.785032 59.8017495,266.455044 C61.0776558,269.124996 61.8150255,272.02022 61.9716874,274.975202 Z" fill="#9E9E9E">

</path>
				<path d="M21.5641016,54.5650606 C18.9814831,54.6363631 16.4354131,53.9424806 14.2460944,52.570687 C12.0567996,51.1988336 10.3219858,49.2102622 9.25983722,46.8551295 C8.19768984,44.499937 7.85562972,41.8832824 8.276674,39.3342215 C8.69771827,36.7851606 9.86306631,34.4174662 11.6261678,32.5289814 C13.3892752,30.6404727 15.6714246,29.3154324 18.1856119,28.7204982 C20.6997394,28.1255646 23.3336813,28.2873008 25.7562282,29.1853653 C28.1787154,30.0834346 30.2815979,31.6777312 31.800363,33.767765 C33.3191879,35.8578106 34.1861222,38.3502842 34.2921188,40.9317063 C34.3930308,44.4222341 33.113057,47.8117302 30.7300493,50.3642007 C28.3470417,52.916731 25.0533134,54.4262842 21.5641016,54.5650606 Z" fill="#616262">

</path>
		</g>
  </g>
  </symbol>
  <symbol id="ico-anaconda-light" viewBox="0 0 256 256">
    <path fill-rule="evenodd" clip-rule="evenodd" d="M128.217 28C124.394 28 120.571 28.2931 116.977 28.5862C122.325 32.222 127.366 36.2879 132.053 40.7437L135.876 44.2992L132.053 48.1223C128.68 51.2594 125.522 54.6184 122.597 58.177V58.4701C122.072 59.0326 121.578 59.624 121.119 60.2415C123.477 59.9976 125.847 59.8997 128.217 59.9484C146.089 60.1931 163.146 67.4644 175.697 80.1891C188.25 92.9138 195.286 110.069 195.286 127.942C195.286 145.816 188.25 162.97 175.697 175.696C163.146 188.42 146.089 195.691 128.217 195.936C115.678 196.009 103.375 192.522 92.7386 185.881C87.6368 186.471 82.5055 186.769 77.3698 186.773C74.9996 186.824 72.6286 186.722 70.2715 186.467C70.5453 194.48 71.2386 202.473 72.3488 210.413C88.7999 221.666 108.285 227.649 128.217 227.566C141.321 227.566 154.296 224.985 166.402 219.97C178.509 214.956 189.509 207.606 198.774 198.34C208.04 189.074 215.39 178.074 220.404 165.968C225.419 153.862 228 140.886 228 127.783C228 114.679 225.419 101.704 220.404 89.5977C215.39 77.4915 208.04 66.4915 198.774 57.2258C189.509 47.96 178.509 40.6101 166.402 35.5955C154.296 30.581 141.321 28 128.217 28ZM74.1191 43.9627C80.9446 39.5324 88.2891 35.9586 95.9871 33.3217C93.4723 37.9293 91.1967 42.6635 89.1694 47.5055C84.2228 46.044 79.1982 44.8612 74.1191 43.9627ZM68.5092 80.2438C72.4996 79.9774 76.2913 79.7244 80.3256 79.7244C76.1448 83.7231 72.5611 88.3025 69.6846 93.3219C68.6107 89.0455 67.8189 84.7034 67.3143 80.3233L68.5092 80.2438ZM64.9568 180.54V181.126L64.0647 180.858C56.4582 180.216 48.9332 178.829 41.5976 176.717L41.0114 176.424L41.3045 175.825C43.5735 168.753 46.3372 161.85 49.5752 155.167L49.8811 154.568L50.4672 154.861C55.4405 157.701 60.5717 160.254 65.8361 162.507L66.4351 162.801V163.387C65.488 169.056 64.9937 174.792 64.9568 180.54ZM64.9565 186.438V185.851H64.3576C57.8892 185.178 51.4703 184.093 45.1401 182.602L43.3688 182.308L44.2608 183.787C50.0508 192.488 57.1277 200.262 65.2496 206.84L66.4348 208.025V205.948C65.5317 199.482 65.038 192.965 64.9565 186.438ZM121.118 44.8437C119.054 46.9209 116.976 49.2784 114.912 51.6488C114.657 51.9418 113.141 53.7132 111.356 56.0963C107.225 54.1327 102.99 52.4424 98.793 50.7671L98.0646 50.4764C100.399 44.753 103.164 39.2149 106.335 33.9096C111.452 37.2922 116.386 40.9419 121.118 44.8437ZM47.2177 108.706L47.5108 109.292L48.0971 109C52.7506 105.675 57.5881 102.616 62.5866 99.8368L63.1728 99.5434V98.9447C61.6406 93.2306 60.5541 87.4062 59.9231 81.5241V80.9251H59.3369C51.9832 82.2664 44.76 84.245 37.7492 86.8382L37.163 87.1313L37.4561 87.7303C39.7948 95.113 43.0758 102.163 47.2177 108.706ZM45.4458 118.751L46.032 118.165L46.3888 119.006C49.6031 123.521 53.0574 127.86 56.7367 132.004L57.0298 132.298L56.7367 132.896C53.4928 137.246 50.5139 141.786 47.8161 146.494L47.523 147.08L46.9368 146.787C41.168 142.989 35.6356 138.844 30.3701 134.375L29.7711 133.776L30.3701 133.24C35.0214 128.036 40.0612 123.192 45.4458 118.751ZM85.347 181.426H87.1183L85.6401 180.24C80.2795 175.914 75.6831 170.719 72.0426 164.872V164.578L70.8701 163.98V164.872C70.1661 170.068 69.7704 175.302 69.6849 180.546V181.132H70.2711C71.4563 181.132 72.6383 181.206 73.8203 181.279C75.0023 181.353 76.1842 181.426 77.3694 181.426H85.347ZM86.2388 56.3838C84.5482 61.1196 83.1648 65.9595 82.097 70.8734C76.9618 70.8568 71.83 71.1419 66.7282 71.7272C66.3885 65.2244 66.4864 58.7062 67.0213 52.2166C73.5168 53.1535 79.9385 54.546 86.2388 56.3838ZM91.5527 70.5573C95.9752 67.8824 100.628 65.6092 105.456 63.7649C102.013 62.0385 98.4531 60.5566 94.8024 59.3301C93.6299 62.8728 92.4448 66.7214 91.5527 70.5573ZM44.5669 151.617H45.1403L44.8599 152.79C42.1945 158.179 39.8249 163.71 37.7617 169.357L37.1755 170.835L36.5893 169.357C32.4989 160.568 29.8031 151.195 28.599 141.576L28.3059 139.791L29.7842 140.976C34.5161 144.787 39.4509 148.34 44.5669 151.617ZM57.8585 56.9694C51.9156 62.8914 46.7511 69.5462 42.4896 76.7731C47.4731 75.3059 52.7578 74.1399 58.0324 72.9763L58.1516 72.95C57.8585 67.6104 57.8585 62.2962 57.8585 56.9694ZM60.8149 125.256V127.027L59.9738 125.536C57.7314 123.072 55.665 120.262 53.6354 117.503C52.9893 116.625 52.3463 115.751 51.7032 114.895L50.8111 114.297L51.4101 114.003C55.0802 111.446 58.7502 109.172 62.4203 106.897L62.8794 106.612L64.3576 105.733L63.7714 107.517C62.0232 113.277 61.0295 119.24 60.8149 125.256ZM61.6945 137.382L61.4014 135.61L60.5221 137.089C57.8587 140.912 55.1953 145.066 52.8759 149.208L52.57 149.794L53.169 150.087C57.1838 152.392 61.4878 154.408 65.7998 156.427L66.1675 156.6L67.6458 157.186L67.0596 155.708C64.385 149.894 62.5774 143.72 61.6945 137.382ZM42.7827 113.085L42.1837 113.379C37.3555 116.984 32.9898 121.169 29.1852 125.842L28 127.027V125.256C28.2237 115.715 29.8159 106.256 32.7279 97.1686L33.3269 95.3971L33.9131 96.8752C36.4792 102.235 39.3425 107.446 42.4896 112.487L42.7827 113.085Z" fill="#43B049"/>
  </symbol>
  <symbol id="ico-cuda-light" viewBox="0 0 256 256">
    <g transform="translate(28.0,28.0) scale(6.250000)">
    <path d="M12.447,12.265V10.591c.163-.012.327-.02.494-.026,4.577-.143,7.581,3.934,7.581,3.934S17.278,19,13.8,19a4.2,4.2,0,0,1-1.353-.217V13.712c1.782.215,2.14,1,3.212,2.788l2.383-2.009A6.312,6.312,0,0,0,13.37,12.21a8.606,8.606,0,0,0-.923.055m0-5.529v2.5c.164-.013.329-.024.494-.03,6.366-.214,10.513,5.221,10.513,5.221s-4.764,5.792-9.726,5.792a7.4,7.4,0,0,1-1.281-.112v1.545a8.528,8.528,0,0,0,1.067.069c4.618,0,7.958-2.358,11.192-5.15.535.43,2.731,1.474,3.182,1.932-3.075,2.574-10.241,4.649-14.3,4.649-.392,0-.769-.024-1.138-.06v2.172H30V6.736Zm0,12.051v1.32c-4.271-.762-5.457-5.2-5.457-5.2a9.234,9.234,0,0,1,5.457-2.64v1.447h-.006a4.1,4.1,0,0,0-3.184,1.456s.782,2.811,3.19,3.62M4.861,14.713a10.576,10.576,0,0,1,7.586-4.122V9.236C6.848,9.685,2,14.427,2,14.427s2.746,7.939,10.447,8.665v-1.44C6.8,20.941,4.861,14.713,4.861,14.713Z" fill="#80bc00"/>
  </g>
  </symbol>
  </defs>

  <g class="marquee">
    <use href="#ico-python-light" x="4" y="4" width="44" height="44"/>
    <use href="#ico-pytorch-light" x="60" y="4" width="44" height="44"/>
    <use href="#ico-tensorflow-light" x="116" y="4" width="44" height="44"/>
    <use href="#ico-huggingface-light" x="172" y="4" width="44" height="44"/>
    <use href="#ico-numpy-light" x="228" y="4" width="44" height="44"/>
    <use href="#ico-jupyter-light" x="284" y="4" width="44" height="44"/>
    <use href="#ico-anaconda-light" x="340" y="4" width="44" height="44"/>
    <use href="#ico-cuda-light" x="396" y="4" width="44" height="44"/>
    <use href="#ico-python-light" x="452" y="4" width="44" height="44"/>
    <use href="#ico-pytorch-light" x="508" y="4" width="44" height="44"/>
    <use href="#ico-tensorflow-light" x="564" y="4" width="44" height="44"/>
    <use href="#ico-huggingface-light" x="620" y="4" width="44" height="44"/>
    <use href="#ico-numpy-light" x="676" y="4" width="44" height="44"/>
    <use href="#ico-jupyter-light" x="732" y="4" width="44" height="44"/>
    <use href="#ico-anaconda-light" x="788" y="4" width="44" height="44"/>
    <use href="#ico-cuda-light" x="844" y="4" width="44" height="44"/>
  </g>
</svg>
