<svg xmlns="http://www.w3.org/2000/svg" width="838" height="28" viewBox="0 0 838 28">
  <style>
    .name { font-family: 'Segoe UI', Helvetica, Arial, sans-serif; font-size: 14px; font-weight: 600; }
    .tag  { font-family: 'Segoe UI', Helvetica, Arial, sans-serif; font-size: 14px; }
    @media (prefers-color-scheme: dark) {
      .name, .tag { fill: #E6EDF3; }
      .sep { stroke: #E6EDF3; }
    }
    @media (prefers-color-scheme: light) {
      .name, .tag { fill: #1F2328; }
      .sep { stroke: #1F2328; }
    }
  </style>
  <svg x="10" y="4" width="20" height="20" viewBox="0 0 24 24">
    <path d="M11.374 23.977c-4.183-.21-8.006-2.626-9.959-6.347-2.097-3.858-1.871-8.864.732-12.454C4.748 1.338 9.497-.698 14.281.23c4.583.857 8.351 4.494 9.358 8.911 1.122 4.344-.423 9.173-3.925 12.04-2.289 1.953-5.295 2.956-8.34 2.797zm7.705-8.05a588.737 588.737 0 0 0-3.171-1.887c-.903 1.483-2.885 2.248-4.57 1.665-2.024-.639-3.394-2.987-2.488-5.134.801-2.009 2.79-2.707 4.357-2.464a4.19 4.19 0 0 1 2.623 1.669c1.077-.631 2.128-1.218 3.173-1.855-2.03-3.118-6.151-4.294-9.656-2.754-3.13 1.423-4.89 4.68-4.388 7.919.54 3.598 3.73 6.486 7.716 6.404a7.664 7.664 0 0 0 6.404-3.563z" fill="#0056D2"/>
  </svg>
  <line class="sep" x1="287" y1="4" x2="287" y2="24" stroke-width="1" opacity="0.3"/>
  <text>
    <tspan class="name" x="173" y="14.0" text-anchor="middle" dominant-baseline="central">AI Certifications</tspan>
    <tspan class="tag" x="562" y="14.0" text-anchor="middle" dominant-baseline="central">Pursuing certifications and deepening applied research</tspan>
  </text>
</svg>
