<svg xmlns="http://www.w3.org/2000/svg" width="838" height="28" viewBox="0 0 838 28">
  <style>
    .name { font-family: 'Segoe UI', Helvetica, Arial, sans-serif; font-size: 14px; font-weight: 600; }
    .tag  { font-family: 'Segoe UI', Helvetica, Arial, sans-serif; font-size: 14px; }
    @media (prefers-color-scheme: dark) {
      .name, .tag { fill: #E6EDF3; }
      .sep { stroke: #E6EDF3; }
    }
    @media (prefers-color-scheme: light) {
      .name, .tag { fill: #1F2328; }
      .sep { stroke: #1F2328; }
    }
  </style>
  <svg x="10" y="4" width="20" height="20" viewBox="0 0 24 24">
    <path d="M8.224 14.352a4.447 4.447 0 0 1-3.775 2.092C1.992 16.444 0 14.454 0 12s1.992-4.444 4.45-4.444c1.592 0 2.988.836 3.774 2.092-.427.682-.673 1.488-.673 2.352s.246 1.67.673 2.352zM15.101 12c0-.864.247-1.67.674-2.352-.786-1.256-2.183-2.092-3.775-2.092s-2.989.836-3.775 2.092c.427.682.674 1.488.674 2.352s-.247 1.67-.674 2.352c.786 1.256 2.183 2.092 3.775 2.092s2.989-.836 3.775-2.092A4.42 4.42 0 0 1 15.1 12zm4.45-4.444a4.447 4.447 0 0 0-3.775 2.092c.427.682.673 1.488.673 2.352s-.246 1.67-.673 2.352a4.447 4.447 0 0 0 3.775 2.092C22.008 16.444 24 14.454 24 12s-1.992-4.444-4.45-4.444z" fill="#00E054"/>
  </svg>
  <line class="sep" x1="226" y1="4" x2="226" y2="24" stroke-width="1" opacity="0.3"/>
  <text>
    <tspan class="name" x="132" y="14.0" text-anchor="middle" dominant-baseline="central">Ananym</tspan>
    <tspan class="tag" x="532" y="14.0" text-anchor="middle" dominant-baseline="central">Multilingual anagram engine decomposing names into meaningful n-gram words</tspan>
  </text>
</svg>
