<svg xmlns="http://www.w3.org/2000/svg" width="846" height="28" viewBox="0 0 846 28">
  <style>
    .name { font-family: 'Segoe UI', Helvetica, Arial, sans-serif; font-size: 14px; font-weight: 600; }
    .tag  { font-family: 'Segoe UI', Helvetica, Arial, sans-serif; font-size: 14px; }
    @media (prefers-color-scheme: dark) {
      .name, .tag { fill: #E6EDF3; }
      .sep { stroke: #E6EDF3; }
    }
    @media (prefers-color-scheme: light) {
      .name, .tag { fill: #1F2328; }
      .sep { stroke: #1F2328; }
    }
  </style>
  <svg x="10" y="4" width="20" height="20" viewBox="0 0 24 24">
    <path d="M13.312 12C13.312 5.718 8.22.625 1.937.625H0v5h1.938c3.521 0 6.375 2.854 6.375 6.375s-2.854 6.375-6.375 6.375H0v5h1.938c6.281 0 11.374-5.093 11.374-11.375zM24 7.563C24 3.731 20.893.625 17.062.625h-8a13.4154 13.4154 0 0 1 4.686 5h3.314c1.069 0 1.938.868 1.938 1.938 0 1.07-.869 1.938-1.938 1.938h-1.938c.313 1.652.313 3.348 0 5h1.938c1.068 0 1.938.867 1.938 1.938s-.869 1.938-1.938 1.938h-3.314a13.4154 13.4154 0 0 1-4.686 5h8c1.621 0 3.191-.568 4.438-1.605 2.943-2.45 3.346-6.824.895-9.77A6.9459 6.9459 0 0 0 24 7.563z" fill="#F9A03C"/>
  </svg>
  <line class="sep" x1="256" y1="4" x2="256" y2="24" stroke-width="1" opacity="0.3"/>
  <text>
    <tspan class="name" x="140" y="14.0" text-anchor="middle" dominant-baseline="central">Dynamic Family Tree</tspan>
    <tspan class="tag" x="543" y="14.0" text-anchor="middle" dominant-baseline="central">Interactive genealogy rendered as a traversable olive tree</tspan>
  </text>
</svg>
