<svg xmlns="http://www.w3.org/2000/svg" width="846" height="28" viewBox="0 0 846 28">
  <style>
    .name { font-family: 'Segoe UI', Helvetica, Arial, sans-serif; font-size: 14px; font-weight: 600; }
    .sep  { font-family: 'Segoe UI', Helvetica, Arial, sans-serif; font-size: 14px; opacity: 0.5; }
    .tag  { font-family: 'Segoe UI', Helvetica, Arial, sans-serif; font-size: 14px; }
    @media (prefers-color-scheme: dark) {
      .name, .sep, .tag { fill: #E6EDF3; }
    }
    @media (prefers-color-scheme: light) {
      .name, .sep, .tag { fill: #1F2328; }
    }
  </style>
  <svg x="5" y="4" width="20" height="20" viewBox="0 0 24 24">
    <path d="M18.087 6.146c-.3 0-.607.017-.907.069-2.532.367-4.23 2.239-5.18 3.674-.95-1.435-2.648-3.307-5.18-3.674a6.49 6.49 0 0 0-.907-.069C2.648 6.146 0 8.77 0 12s2.656 5.854 5.913 5.854c.3 0 .607-.017.916-.069 2.531-.376 4.23-2.247 5.18-3.683.949 1.436 2.647 3.307 5.18 3.683.299.043.607.069.915.069C21.344 17.854 24 15.23 24 12s-2.656-5.854-5.913-5.854zM6.53 15.734a3.837 3.837 0 0 1-.625.043c-2.148 0-3.889-1.7-3.889-3.777 0-2.085 1.749-3.777 3.898-3.777.208 0 .416.017.624.043 2.39.35 3.847 2.768 4.347 3.734-.508.974-1.974 3.384-4.355 3.734zm11.558.043c-.208 0-.416-.017-.624-.043-2.39-.35-3.856-2.768-4.347-3.734.491-.966 1.957-3.384 4.347-3.734.208-.026.416-.043.624-.043 2.149 0 3.89 1.7 3.89 3.777 0 2.085-1.75 3.777-3.89 3.777zm1.65-4.404v1.134h-1.205v1.182h-1.156v-1.182H16.17v-1.134h1.206V10.19h1.156v1.183h1.206zM4.246 12.498H7.82v-1.125H4.245v1.125z" fill="#00878F"/>
  </svg>
  <text>
    <tspan class="name" x="128" y="14.0" text-anchor="middle" dominant-baseline="central">Grey Wolf Optimizer MCU</tspan>
    <tspan class="sep" x="237" y="14.0" text-anchor="middle" dominant-baseline="central">|</tspan>
    <tspan class="tag" x="546" y="14.0" text-anchor="middle" dominant-baseline="central">Grey Wolf metaheuristic implemented on FPGA</tspan>
  </text>
</svg>
