<svg xmlns="http://www.w3.org/2000/svg" width="838" height="28" viewBox="0 0 838 28">
  <style>
    .name { font-family: 'Segoe UI', Helvetica, Arial, sans-serif; font-size: 14px; font-weight: 600; }
    .tag  { font-family: 'Segoe UI', Helvetica, Arial, sans-serif; font-size: 14px; }
    @media (prefers-color-scheme: dark) {
      .name, .tag { fill: #E6EDF3; }
      .sep { stroke: #E6EDF3; }
    }
    @media (prefers-color-scheme: light) {
      .name, .tag { fill: #1F2328; }
      .sep { stroke: #1F2328; }
    }
  </style>
  <svg x="10" y="4" width="20" height="20" viewBox="0 0 24 24">
    <path d="M9.629 13.227c-.593 0-1.139.2-1.58.533l-2.892-1.976a2.61 2.61 0 0 0 .101-.711 2.633 2.633 0 0 0-2.629-2.629A2.632 2.632 0 0 0 0 11.073a2.632 2.632 0 0 0 2.629 2.629c.593 0 1.139-.2 1.579-.533L7.1 15.145c-.063.226-.1.465-.1.711 0 .247.037.484.1.711l-2.892 1.976a2.608 2.608 0 0 0-1.579-.533A2.632 2.632 0 0 0 0 20.639a2.632 2.632 0 0 0 2.629 2.629 2.632 2.632 0 0 0 2.629-2.629c0-.247-.037-.485-.101-.711l2.892-1.976c.441.333.987.533 1.58.533a2.633 2.633 0 0 0 2.629-2.629c0-1.45-1.18-2.629-2.629-2.629ZM16.112.732c-4.72 0-7.888 2.748-7.888 8.082v3.802a3.525 3.525 0 0 1 3.071.008v-3.81c0-3.459 1.907-5.237 4.817-5.237s4.817 1.778 4.817 5.237v8.309H24V8.814C24 3.448 20.832.732 16.112.732Z" fill="#4581C3"/>
  </svg>
  <line class="sep" x1="291" y1="4" x2="291" y2="24" stroke-width="1" opacity="0.3"/>
  <text>
    <tspan class="name" x="173" y="14.0" text-anchor="middle" dominant-baseline="central">Heuristic Advising Algorithm</tspan>
    <tspan class="tag" x="564" y="14.0" text-anchor="middle" dominant-baseline="central">Graph-driven course scheduling through coloring matching and clustering</tspan>
  </text>
</svg>
